<svg fill="#000000" xmlns="http://www.w3.org/2000/svg"  viewBox="0 0 100 100" width="100px" height="100px"><path d="M 32 11 A 1.0001 1.0001 0 0 0 31.292969 11.292969 L 17.292969 25.292969 A 1.0001 1.0001 0 0 0 17 26 L 17 76 A 1.0001 1.0001 0 0 0 18 77 L 33 77 L 33 90 A 1.0001 1.0001 0 0 0 34.707031 90.707031 L 48.414062 77 L 60 77 A 1.0001 1.0001 0 0 0 60.707031 76.707031 L 84.707031 52.707031 A 1.0001 1.0001 0 0 0 85 52 L 85 12 A 1.0001 1.0001 0 0 0 84 11 L 32 11 z M 32.414062 13 L 83 13 L 83 51.585938 L 59.585938 75 L 48 75 A 1.0001 1.0001 0 0 0 47.292969 75.292969 L 35 87.585938 L 35 76 A 1.0001 1.0001 0 0 0 34 75 L 19 75 L 19 26.414062 L 32.414062 13 z M 35.5 18 A 0.50005 0.50005 0 0 0 35 18.5 L 35 25.5 A 0.50005 0.50005 0 1 0 36 25.5 L 36 19 L 78 19 L 78 34.5 A 0.50005 0.50005 0 1 0 79 34.5 L 79 18.5 A 0.50005 0.50005 0 0 0 78.5 18 L 35.5 18 z M 35.492188 27.992188 A 0.50005 0.50005 0 0 0 35 28.5 L 35 58.5 A 0.50005 0.50005 0 0 0 35.5 59 L 47 59 L 47 68.5 A 0.50005 0.50005 0 0 0 47.853516 68.853516 L 57.707031 59 L 67.5 59 A 0.50005 0.50005 0 0 0 67.853516 58.853516 L 78.853516 47.853516 A 0.50005 0.50005 0 0 0 79 47.5 L 79 43.5 A 0.50005 0.50005 0 1 0 78 43.5 L 78 47.292969 L 67.292969 58 L 57.5 58 A 0.50005 0.50005 0 0 0 57.146484 58.146484 L 48 67.292969 L 48 58.5 A 0.50005 0.50005 0 0 0 47.5 58 L 36 58 L 36 28.5 A 0.50005 0.50005 0 0 0 35.492188 27.992188 z M 50.5 28 A 0.50005 0.50005 0 0 0 50 28.5 L 50 33.5 A 0.50005 0.50005 0 1 0 51 33.5 L 51 29 L 55 29 L 55 43 L 51 43 L 51 40.5 A 0.50005 0.50005 0 1 0 50 40.5 L 50 43.5 A 0.50005 0.50005 0 0 0 50.5 44 L 55.5 44 A 0.50005 0.50005 0 0 0 56 43.5 L 56 28.5 A 0.50005 0.50005 0 0 0 55.5 28 L 50.5 28 z M 65.5 28 A 0.50005 0.50005 0 0 0 65 28.5 L 65 43.5 A 0.50005 0.50005 0 0 0 65.5 44 L 70.5 44 A 0.50005 0.50005 0 0 0 71 43.5 L 71 35.5 A 0.50005 0.50005 0 1 0 70 35.5 L 70 43 L 66 43 L 66 29 L 70 29 L 70 32.5 A 0.50005 0.50005 0 1 0 71 32.5 L 71 28.5 A 0.50005 0.50005 0 0 0 70.5 28 L 65.5 28 z M 50.492188 35.492188 A 0.50005 0.50005 0 0 0 50 36 L 50 37.5 A 0.50005 0.50005 0 1 0 51 37.5 L 51 36 A 0.50005 0.50005 0 0 0 50.492188 35.492188 z M 78.492188 36.992188 A 0.50005 0.50005 0 0 0 78 37.5 L 78 40.5 A 0.50005 0.50005 0 1 0 79 40.5 L 79 37.5 A 0.50005 0.50005 0 0 0 78.492188 36.992188 z"/></svg>